<?xml version="1.0" encoding="iso-8859-1"?>
<!-- Generator: Adobe Illustrator 18.0.0, SVG Export Plug-In . SVG Version: 6.00 Build 0)  -->
<!DOCTYPE svg PUBLIC "-//W3C//DTD SVG 1.1//EN" "http://www.w3.org/Graphics/SVG/1.1/DTD/svg11.dtd">
<svg version="1.1" id="Capa_1" xmlns="http://www.w3.org/2000/svg" xmlns:xlink="http://www.w3.org/1999/xlink" x="0px" y="0px"
	 viewBox="0 0 317.109 317.109" style="enable-background:new 0 0 317.109 317.109;" xml:space="preserve">
<g>
	<path d="M292.053,161.341c0,0-39.124-74.305-39.975-75.801c-1.925-3.382-6.008-5.181-10.198-5.181H196.7
		c-4.19,0-8.274,1.797-10.197,5.179c-0.583,1.026-18.312,34.67-29.961,56.787l-4.327-62.709
		c-0.485-7.043-6.472-12.374-13.451-12.175H44.47c-7-0.202-12.967,5.131-13.453,12.175l-7.335,106.304
		c-0.497,7.216,4.949,13.471,12.166,13.969c7.298,0.487,13.476-5.01,13.969-12.166l4.975-72.095l0.262,185.32
		c0,8.464,6.504,15.746,14.958,16.144c9.026,0.425,16.478-6.768,16.478-15.7v-99.025c0-2.894,2.346-5.24,5.239-5.24
		c2.894,0,5.239,2.346,5.239,5.24v98.581c0,8.464,6.504,15.746,14.958,16.144c9.026,0.425,16.478-6.768,16.478-15.7l0.262-182.447
		l4.746,68.778c0.477,6.91,6.231,12.198,13.055,12.198c4.566,0,8.878-2.503,10.8-5.962c1.881-3.385,25.997-49.151,25.997-49.151
		l-7.825,67.525c-0.353,2.593,0.432,5.212,2.154,7.184c1.692,1.938,4.128,3.058,6.697,3.095v76.583
		c0,8.077,6.207,15.027,14.275,15.407c8.614,0.406,15.725-6.458,15.725-14.983v-72c0-2.761,2.239-5,5-5c2.761,0,5,2.239,5,5v71.576
		c0,8.077,6.207,15.027,14.275,15.407c8.614,0.406,15.725-6.458,15.725-14.983v-77.007c2.569-0.037,5.005-1.157,6.697-3.095
		c1.721-1.971,2.506-4.59,2.154-7.184l-7.826-67.526l14.545,28.044c2.225,4.289,6.588,6.748,11.107,6.748
		c1.938,0,3.905-0.453,5.744-1.406C292.84,175.014,295.231,167.469,292.053,161.341z M102.139,129.748l-7.363,11.584
		c-1.471,2.314-4.849,2.314-6.32,0l-7.363-11.584c-0.536-0.844-0.713-1.868-0.49-2.843l6.621-35.107l-4.347-4.347
		c-1.448-1.448-1.448-3.796,0-5.244l6.118-6.118c1.448-1.448,3.796-1.448,5.244,0l6.118,6.118c1.448,1.448,1.448,3.796,0,5.244
		l-4.347,4.347l6.621,35.107C102.852,127.88,102.675,128.904,102.139,129.748z"/>
	<circle cx="219.565" cy="43.358" r="27.179"/>
	<circle cx="91.616" cy="28.481" r="28.481"/>
</g>
<g>
</g>
<g>
</g>
<g>
</g>
<g>
</g>
<g>
</g>
<g>
</g>
<g>
</g>
<g>
</g>
<g>
</g>
<g>
</g>
<g>
</g>
<g>
</g>
<g>
</g>
<g>
</g>
<g>
</g>
</svg>
